<svg xmlns="http://www.w3.org/2000/svg"  viewBox="0 0 64 64" width="64px" height="64px"><linearGradient id="jWKVj3YNE_OGzQp40scuZa" x1="21" x2="21" y1="21.298" y2="25.494" gradientUnits="userSpaceOnUse"><stop offset="0" stop-color="#6dc7ff"/><stop offset="1" stop-color="#e6abff"/></linearGradient><circle cx="21" cy="24" r="3" fill="url(#jWKVj3YNE_OGzQp40scuZa)"/><linearGradient id="jWKVj3YNE_OGzQp40scuZb" x1="43" x2="43" y1="21.298" y2="25.494" gradientUnits="userSpaceOnUse"><stop offset="0" stop-color="#6dc7ff"/><stop offset="1" stop-color="#e6abff"/></linearGradient><circle cx="43" cy="24" r="3" fill="url(#jWKVj3YNE_OGzQp40scuZb)"/><g><linearGradient id="jWKVj3YNE_OGzQp40scuZc" x1="32" x2="32" y1="7.511" y2="57.41" gradientUnits="userSpaceOnUse"><stop offset="0" stop-color="#1a6dff"/><stop offset="1" stop-color="#c822ff"/></linearGradient><path fill="url(#jWKVj3YNE_OGzQp40scuZc)" d="M53,38c2.206,0,4-1.794,4-4v-3C57,17.215,45.785,6,32,6S7,17.215,7,31v3c0,2.206,1.794,4,4,4 c0.732,0,1.409-0.212,2-0.556v3.647c-2.833,0.478-5,2.942-5,5.91v10h2V47c0-1.86,1.276-3.428,3-3.874V57h1h1h7v-2h-7v-2h5v-2h-5v-2 h2v-2h-2V33h-2v1c0,1.103-0.897,2-2,2s-2-0.897-2-2v-3c0-10.965,7.715-20.156,18-22.446V11h2V8.202 c0.659-0.086,1.325-0.148,2-0.177V14h2V8.025c0.675,0.029,1.341,0.09,2,0.177V11h2V8.554C47.285,10.844,55,20.035,55,31v3 c0,1.103-0.897,2-2,2s-2-0.897-2-2v-1h-2v24h2V43.126c1.724,0.445,3,2.013,3,3.874v10h2V47c0-2.967-2.167-5.431-5-5.91v-3.647 C51.591,37.788,52.268,38,53,38z"/><linearGradient id="jWKVj3YNE_OGzQp40scuZd" x1="32" x2="32" y1="7.511" y2="57.41" gradientUnits="userSpaceOnUse"><stop offset="0" stop-color="#1a6dff"/><stop offset="1" stop-color="#c822ff"/></linearGradient><path fill="url(#jWKVj3YNE_OGzQp40scuZd)" d="M50,24c0-3.86-3.141-7-7-7s-7,3.14-7,7c0,0.221,0.034,0.438,0.055,0.656 C34.777,24.236,33.417,24,32,24c-1.408,0-2.761,0.232-4.032,0.648C27.988,24.433,28,24.218,28,24c0-3.86-3.141-7-7-7s-7,3.14-7,7 c0,3.688,2.869,6.712,6.491,6.974C19.543,32.777,19,34.825,19,37v1.5c0,3.033,2.468,5.5,5.5,5.5s5.5-2.467,5.5-5.5V37h4v1.5 c0,3.033,2.468,5.5,5.5,5.5s5.5-2.467,5.5-5.5V37c0-2.175-0.543-4.223-1.491-6.026C47.131,30.712,50,27.688,50,24z M21,29 c-2.757,0-5-2.243-5-5s2.243-5,5-5s5,2.243,5,5c0,0.564-0.113,1.109-0.296,1.635c-1.501,0.835-2.816,1.959-3.878,3.295 C21.556,28.975,21.278,29,21,29z M30,35c-0.552,0-1-0.449-1-1s0.448-1,1-1h4c0.552,0,1,0.449,1,1s-0.448,1-1,1H30z M43,38.5 c0,1.93-1.57,3.5-3.5,3.5S36,40.43,36,38.5v-2.28c0.609-0.549,1-1.337,1-2.22c0-1.654-1.346-3-3-3h-4c-1.654,0-3,1.346-3,3 c0,0.883,0.391,1.67,1,2.22v2.28c0,1.93-1.57,3.5-3.5,3.5S21,40.43,21,38.5V37c0-6.065,4.935-11,11-11s11,4.935,11,11V38.5z M43,29 c-0.27,0-0.538-0.021-0.8-0.063l-0.004,0.024c-1.072-1.357-2.403-2.499-3.925-3.341C38.093,25.101,38,24.556,38,24 c0-2.757,2.243-5,5-5s5,2.243,5,5S45.757,29,43,29z"/></g></svg>